<svg width="50" height="50" viewBox="0 0 50 50" fill="none" xmlns="http://www.w3.org/2000/svg">
<path d="M46.05 23.0516L26.9484 3.95001C26.6871 3.68781 26.3767 3.47976 26.0348 3.33781C25.6929 3.19586 25.3264 3.12279 24.9563 3.12279C24.5861 3.12279 24.2196 3.19586 23.8777 3.33781C23.5358 3.47976 23.2254 3.68781 22.9641 3.95001L18.9969 7.91719L24.0281 12.9484C24.6214 12.7465 25.2595 12.7153 25.8696 12.8584C26.4798 13.0015 27.0375 13.3131 27.4792 13.7577C27.9209 14.2023 28.2288 14.7621 28.3678 15.3732C28.5069 15.9843 28.4714 16.6221 28.2656 17.2141L33.1094 22.0578C33.8334 21.8091 34.6208 21.816 35.3404 22.0773C36.0599 22.3386 36.6682 22.8387 37.0639 23.4941C37.4595 24.1495 37.6186 24.9206 37.5147 25.6791C37.4108 26.4376 37.0501 27.1375 36.4928 27.6624C35.9354 28.1872 35.2151 28.5052 34.4517 28.5633C33.6884 28.6215 32.9281 28.4164 32.2977 27.9821C31.6672 27.5478 31.2047 26.9105 30.987 26.1766C30.7694 25.4426 30.8098 24.6562 31.1016 23.9484L26.5781 19.425V31.3266C27.2633 31.6661 27.8116 32.2301 28.1315 32.9247C28.4514 33.6193 28.5236 34.4025 28.3363 35.1439C28.1489 35.8853 27.7131 36.5401 27.1016 36.9993C26.4901 37.4584 25.7397 37.6942 24.9754 37.6674C24.2112 37.6405 23.4792 37.3526 22.9014 36.8516C22.3237 36.3507 21.935 35.6669 21.8001 34.9142C21.6652 34.1614 21.7923 33.3852 22.1602 32.7148C22.528 32.0444 23.1145 31.5202 23.8219 31.2297V19.2187C23.4126 19.0508 23.0407 18.8036 22.7274 18.4914C22.4141 18.1791 22.1657 17.8079 21.9965 17.3992C21.8273 16.9905 21.7407 16.5524 21.7415 16.11C21.7424 15.6677 21.8308 15.2299 22.0016 14.8219L17.0484 9.86563L3.95001 22.9687C3.68758 23.2301 3.47934 23.5406 3.33725 23.8827C3.19515 24.2247 3.12201 24.5914 3.12201 24.9617C3.12201 25.3321 3.19515 25.6988 3.33725 26.0408C3.47934 26.3828 3.68758 26.6934 3.95001 26.9547L23.0516 46.05C23.3129 46.3122 23.6233 46.5202 23.9652 46.6622C24.3071 46.8041 24.6736 46.8772 25.0438 46.8772C25.4139 46.8772 25.7804 46.8041 26.1223 46.6622C26.4642 46.5202 26.7746 46.3122 27.0359 46.05L46.05 27.0312C46.3124 26.7699 46.5207 26.4594 46.6628 26.1173C46.8048 25.7753 46.878 25.4086 46.878 25.0383C46.878 24.6679 46.8048 24.3012 46.6628 23.9592C46.5207 23.6172 46.3124 23.3066 46.05 23.0453" fill="#DD4C35"/>
<path d="M18.9969 7.91719L24.0282 12.9484C24.6214 12.7465 25.2595 12.7154 25.8697 12.8584C26.4798 13.0015 27.0375 13.3131 27.4792 13.7577C27.9209 14.2023 28.2288 14.7621 28.3678 15.3732C28.5069 15.9843 28.4715 16.6221 28.2657 17.2141L33.1094 22.0578C33.8334 21.8091 34.6208 21.816 35.3404 22.0773C36.06 22.3387 36.6682 22.8387 37.0639 23.4941C37.4595 24.1495 37.6187 24.9206 37.5148 25.6791C37.4108 26.4376 37.0502 27.1376 36.4928 27.6624C35.9354 28.1872 35.2151 28.5052 34.4517 28.5634C33.6884 28.6215 32.9282 28.4164 32.2977 27.9821C31.6673 27.5478 31.2047 26.9105 30.987 26.1766C30.7694 25.4426 30.8098 24.6562 31.1016 23.9484L26.5782 19.425V31.3266C27.2634 31.6661 27.8116 32.2301 28.1315 32.9247C28.4514 33.6193 28.5237 34.4025 28.3363 35.1439C28.1489 35.8853 27.7131 36.5401 27.1016 36.9993C26.4901 37.4584 25.7397 37.6942 24.9755 37.6674C24.2112 37.6405 23.4792 37.3526 22.9015 36.8517C22.3237 36.3507 21.935 35.6669 21.8001 34.9142C21.6652 34.1614 21.7923 33.3852 22.1602 32.7148C22.5281 32.0444 23.1145 31.5203 23.8219 31.2297V19.2188C23.4127 19.0509 23.0407 18.8036 22.7274 18.4914C22.4142 18.1791 22.1658 17.8079 21.9966 17.3992C21.8274 16.9905 21.7407 16.5524 21.7416 16.11C21.7424 15.6677 21.8308 15.2299 22.0016 14.8219L17.0485 9.86563" fill="white"/>
</svg>
